# xmcd CD database file
#
# Track frame offsets:
#	150
#	14477
#	32115
#	49410
#	67985
#	86023
#	106650
#	125905
#	152418
#	173275
#	189288
#	211968
#	228515
#	243995
#
# Disc length: 3595 seconds
#
# Revision: 0
# Processed by: cddbd v1.5.2PL0 Copyright (c) Steve Scherf et al.
# Submitted via: CDex 1.51
#
DISCID=af0e090e
DTITLE=Ella Fitzgerald, Louis Armstrong, Oscar Peterson - 1956-57
DYEAR=1992
DGENRE=Jazz
TTITLE0=I've got my love to keep me warm
TTITLE1=A fine romance
TTITLE2=Can't we be friends
TTITLE3=Isn't this a lovely day
TTITLE4=Love is here to stay
TTITLE5=A foggy day in London town
TTITLE6=Let's call the whole thing off
TTITLE7=Cheeck to cheek
TTITLE8=They can't take that away from me
TTITLE9=Stars fell on Alabama
TTITLE10=Don't be that way
TTITLE11=Moonlight in Vermont
TTITLE12=I'm putting all my eggs in one basket
TTITLE13=The nearness of you
EXTD=YEAR: 1992
EXTT0=
EXTT1=
EXTT2=
EXTT3=
EXTT4=
EXTT5=
EXTT6=
EXTT7=
EXTT8=
EXTT9=
EXTT10=
EXTT11=
EXTT12=
EXTT13=
PLAYORDER=
